<svg xmlns="http://www.w3.org/2000/svg" viewBox="0 0 1229 1006" role="img" aria-label="Leadership Quarter">
  <g transform="translate(0.986481, 737.868003)" fill="#111111">
    <path d="M 537.640625 28.671875 L 529.59375 28.671875 L 468.234375 0 L 153.390625 0 L 153.390625 -41.75 L 531.609375 -41.75 L 458.171875 -27.65625 L 564.296875 -202.1875 L 582.90625 -197.65625 Z M 211.234375 -646.78125 L 211.234375 0 L 39.734375 0 L 39.734375 -18.109375 L 122.71875 -42.25 L 122.71875 -646.78125 L 39.734375 -670.921875 L 39.734375 -689.03125 L 294.21875 -689.03125 L 294.21875 -670.921875 Z M 211.234375 -646.78125 " />
  </g>
  <g transform="translate(441.448311, 737.868003)" fill="#111111">
    <path d="M 456.671875 135.796875 L 214.75 -32.1875 C 175.1875 -59.675781 143.082031 -88.925781 118.4375 -119.9375 C 93.789062 -150.957031 75.769531 -184.910156 64.375 -221.796875 C 52.976562 -258.679688 47.28125 -299.25 47.28125 -343.5 C 47.28125 -395.476562 55.660156 -443.175781 72.421875 -486.59375 C 89.179688 -530.007812 112.898438 -567.644531 143.578125 -599.5 C 174.265625 -631.351562 210.476562 -655.910156 252.21875 -673.171875 C 293.96875 -690.441406 339.65625 -699.078125 389.28125 -699.078125 C 438.894531 -699.078125 484.65625 -690.441406 526.5625 -673.171875 C 568.476562 -655.910156 604.773438 -631.601562 635.453125 -600.25 C 666.140625 -568.90625 689.945312 -531.601562 706.875 -488.34375 C 723.8125 -445.09375 732.28125 -397.484375 732.28125 -345.515625 C 732.28125 -293.878906 723.5625 -245.847656 706.125 -201.421875 C 688.6875 -156.992188 663.875 -118.6875 631.6875 -86.5 C 599.5 -54.3125 561.191406 -30.421875 516.765625 -14.828125 C 472.335938 0.753906 423.300781 5.863281 369.65625 0.5 L 350.546875 -14.578125 L 555.75 104.109375 C 581.894531 118.859375 604.609375 130.84375 623.890625 140.0625 C 643.171875 149.289062 661.109375 156.164062 677.703125 160.6875 C 694.304688 165.21875 711.15625 167.816406 728.25 168.484375 C 745.351562 169.148438 764.46875 168.644531 785.59375 166.96875 L 785.59375 184.578125 C 769.5 189.609375 753.570312 193.96875 737.8125 197.65625 C 722.050781 201.34375 706.039062 204.273438 689.78125 206.453125 C 673.519531 208.628906 656.503906 209.71875 638.734375 209.71875 C 620.628906 209.71875 604.785156 208.546875 591.203125 206.203125 C 577.617188 203.859375 564.457031 199.921875 551.71875 194.390625 C 538.976562 188.859375 525.0625 181.226562 509.96875 171.5 C 494.882812 161.78125 477.117188 149.878906 456.671875 135.796875 Z M 393.796875 -28.671875 C 444.429688 -28.671875 487.9375 -40.90625 524.3125 -65.375 C 560.6875 -89.851562 588.765625 -124.640625 608.546875 -169.734375 C 628.335938 -214.835938 638.234375 -267.898438 638.234375 -328.921875 C 638.234375 -399.328125 627.414062 -459.175781 605.78125 -508.46875 C 584.15625 -557.757812 554.316406 -595.394531 516.265625 -621.375 C 478.210938 -647.363281 434.539062 -660.359375 385.25 -660.359375 C 334.957031 -660.359375 291.535156 -648.117188 254.984375 -623.640625 C 218.441406 -599.160156 190.28125 -564.457031 170.5 -519.53125 C 150.71875 -474.601562 140.828125 -421.460938 140.828125 -360.109375 C 140.828125 -290.023438 151.640625 -230.253906 173.265625 -180.796875 C 194.890625 -131.347656 224.8125 -93.628906 263.03125 -67.640625 C 301.257812 -41.660156 344.847656 -28.671875 393.796875 -28.671875 Z M 393.796875 -28.671875 " />
  </g>
</svg>
