<svg width="220" height="64" viewBox="0 0 220 64" fill="none" xmlns="http://www.w3.org/2000/svg">
  <path d="M22 41.6L27.8 38.2C29.2 40.7 31.8 42.2 35.2 42.2C38.7 42.2 40.7 40.7 40.7 38.5C40.7 36.4 38.9 35.4 34.6 34.2C29 32.6 23.8 30.8 23.8 25C23.8 19.4 28.4 16 34.6 16C40 16 44.2 18.6 46.5 23.2L40.8 26.5C39.5 23.9 37.4 22.5 34.6 22.5C31.9 22.5 30.5 23.9 30.5 25.7C30.5 27.6 31.9 28.7 36 29.9C41.8 31.7 47.4 33.4 47.4 39.4C47.4 44.9 42.9 48.7 35 48.7C27.8 48.7 23.8 45.4 22 41.6Z" fill="currentColor"/>
  <path d="M57 17H87V23H75.5V47H68.5V23H57V17Z" fill="currentColor"/>
  <path d="M97 47V17H112.5C120.4 17 126 22 126 29.5C126 34.9 123 39 118.2 41.1L126.8 47H117.4L110.6 42.2H104V47H97ZM104 36.6H111.9C115.7 36.6 118.5 33.7 118.5 29.5C118.5 25.2 115.7 22.4 111.9 22.4H104V36.6Z" fill="currentColor"/>
  <path d="M136 47V17H160V23H143V29.2H158V34.8H143V41H160V47H136Z" fill="currentColor"/>
</svg>
